# xmcd
#
# Track frame offsets:
#	150
#	14195
#	35634
#	59610
#	82123
#	115388
#	136867
#	158557
#	173518
#	196740
#	211107
#	228182
#
# Disc length: 3196 seconds
# Revision: 1
# Processed by: cddbd v1.5.2PL0 Copyright (c) Steve Scherf et al.
# Submitted via: dBpowerAMP V12.0
#
DISCID=9c0c7a0c
DTITLE=John-Luke Shelley - John-Luke Shelley
DYEAR=2009
DGENRE=Blues Rock Instrumental
TTITLE0=Jl's Boogy
TTITLE1=Itchy Finger Blues
TTITLE2=Dont Miss You Baby
TTITLE3=Laydown
TTITLE4=Open Mind
TTITLE5=Jls Tribute to SRV
TTITLE6=We Gotta Change
TTITLE7=Got a Funny Feeling
TTITLE8=No Body to be Found
TTITLE9=Long Hard Road
TTITLE10=I Need Some of Your Love
TTITLE11=What Should I Call That
EXTD=
EXTT0=
EXTT1=
EXTT2=
EXTT3=
EXTT4=
EXTT5=
EXTT6=
EXTT7=
EXTT8=
EXTT9=
EXTT10=
EXTT11=
PLAYORDER=
